<?xml version="1.0" encoding="utf-8"?>
<!-- Generator: Adobe Illustrator 26.0.1, SVG Export Plug-In . SVG Version: 6.00 Build 0)  -->
<svg version="1.1" id="Capa_1" xmlns="http://www.w3.org/2000/svg" xmlns:xlink="http://www.w3.org/1999/xlink" x="0px" y="0px"
	 viewBox="0 0 32.1 32.1" style="enable-background:new 0 0 32.1 32.1;" xml:space="preserve">
<style type="text/css">
	.st0{fill:#F5F9FC;}
</style>
<g>
	<g>
		<path class="st0" d="M20.3,23.6v-3.1c-0.1-0.1-0.2-0.1-0.4-0.2L18,19.5v3.7H2.3V2.5H12v4.3c0,0.4,0.2,0.8,0.4,1
			c0.3,0.3,0.7,0.4,1.1,0.4l2.2,0c0.8-0.9,1.9-1.5,3.1-1.8c0.3-0.1,0.5-0.1,0.8-0.1c0,0,0.1,0,0.1,0c-0.2-0.3-0.3-0.5-0.6-0.7
			l-4.4-4.4C14.1,0.4,13.2,0,12.2,0H2c-1.1,0-2,0.9-2,2v21.5c0,1.1,0.9,2,2,2h16.2C19.4,25.6,20.3,24.7,20.3,23.6z M14.4,4l2,2h0
			l-2,0V4z"/>
		<path class="st0" d="M12.1,11.7h2.1c0.1-0.8,0.3-1.6,0.7-2.3h-0.2h-2.6h-0.3c-0.6,0-1.1,0.5-1.1,1.1c0,0.6,0.5,1.1,1.1,1.1
			L12.1,11.7L12.1,11.7z"/>
		<path class="st0" d="M3.9,14.9c0,0.6,0.5,1.3,1.1,1.3h10.1c-0.4-0.7-0.6-1.5-0.9-2.4c0,0,0-0.1,0-0.1H5.1
			C4.5,13.7,3.9,14.3,3.9,14.9z"/>
		<path class="st0" d="M5.1,20.4h10.1c0.6,0,1.1-0.5,1.1-1.1s-0.5-1.1-1.1-1.1H5.1c-0.6,0-1.1,0.5-1.1,1.1S4.5,20.4,5.1,20.4z"/>
		<path class="st0" d="M31,18.5l1,0.3v-1.7c0,0-3.1-0.9-3.2-0.9c-1-2.8-3.3-3.8-4.1-4.5c-0.2-0.2-0.4-0.4-0.5-0.7
			C23.4,10,22,7.8,19.3,8.4c-0.9,0.2-1.6,0.7-2.2,1.3c-0.9,1-1.2,2.3-0.9,3.6c0.5,2.1,1.4,3.2,2.8,4.4l3.3,1.4c0-0.1,0-0.1,0-0.2
			c-0.1-0.8-0.6-1.6-1.6-2.4c-1.4-1.1-2.1-1.9-2.5-3.6c-0.2-1.1,0.5-2.2,1.5-2.5c0.8-0.2,1.2,0.3,2.6,1.9c0.4,0.5,0.8,0.8,1.2,1.2
			c0.5,0.5,2.5,1.3,3.2,4c0,1.8,0.1,3.6-0.3,5.8c-0.4,2-1.7,3.6-2.5,4.6c-0.6,0.7-1.6,1.4-2.3,1.1l-6.2-2h-4.7
			c0.5,0.6,1.1,1,1.9,1.3l11.8,3.8H32V21.1l-1.7-0.5c-0.6-0.2-0.9-0.8-0.7-1.4C29.8,18.6,30.4,18.3,31,18.5z"/>
		<path class="st0" d="M9.4,5.3c0-0.5-0.4-0.9-0.9-0.9H4.8c-0.5,0-0.9,0.4-0.9,0.9v4.8c0,0.5,0.4,0.9,0.9,0.9h3.6
			c0.5,0,0.9-0.4,0.9-0.9V5.3z"/>
	</g>
</g>
</svg>
