<?xml version="1.0" encoding="utf-8"?>
<!-- Generator: Adobe Illustrator 26.0.1, SVG Export Plug-In . SVG Version: 6.00 Build 0)  -->
<svg version="1.1" id="Capa_1" xmlns="http://www.w3.org/2000/svg" xmlns:xlink="http://www.w3.org/1999/xlink" x="0px" y="0px"
	 viewBox="0 0 417 417" style="enable-background:new 0 0 417 417;" xml:space="preserve">
<style type="text/css">
	.st0{fill:#499BF2;}
	.st1{fill:#F7F9FC;}
</style>
<g>
	<path class="st0" d="M407,339.1h-33.2c0,0-0.1,0-0.1,0h-29.9v-80.2c2-0.7,4.4-1.1,7.3-1.1c5.5,0,10-4.5,10-10v-24
		c0-27.6-22.4-50-50-50h-76.6v-55.9c0-5.5-4.5-10-10-10h-32c-5.5,0-10,4.5-10,10v55.9h-76.6c-27.6,0-50,22.4-50,50v24
		c0,5.5,4.5,10,10,10c2.9,0,5.2,0.4,7.3,1.1v80.2H43.3c0,0,0,0-0.1,0H10c-5.5,0-10,4.5-10,10c0,5.5,4.5,10,10,10h25l9.1,45.8
		c0.9,4.7,5,8,9.8,8H363c4.8,0,8.9-3.4,9.8-8l9.1-45.8h25c5.5,0,10-4.5,10-10C417,343.5,412.5,339.1,407,339.1z M202.5,127.9h12
		v45.9h-12V127.9z M75.9,223.8c0-16.5,13.5-30,30-30h205.1c16.5,0,30,13.5,30,30v15c-9.4,2.1-15.2,7.1-20.2,11.3
		c-5.5,4.6-9.1,7.6-17.3,7.6s-11.9-3-17.3-7.6c-6.5-5.5-14.7-12.4-30.2-12.4c-15.5,0-23.7,6.8-30.2,12.4c-5.5,4.6-9.1,7.6-17.3,7.6
		c-8.2,0-11.8-3-17.3-7.6c-6.5-5.5-14.7-12.4-30.2-12.4c-15.5,0-23.7,6.8-30.2,12.4c-5.5,4.6-9.1,7.6-17.3,7.6s-11.8-3-17.3-7.6
		c-5-4.2-10.9-9.1-20.2-11.3L75.9,223.8L75.9,223.8z M93.2,272.7c5.1,2.9,11.5,5.1,20.2,5.1c15.5,0,23.7-6.8,30.2-12.4
		c5.5-4.6,9.1-7.6,17.3-7.6c8.2,0,11.8,3,17.3,7.6c6.5,5.5,14.7,12.4,30.2,12.4s23.7-6.8,30.2-12.4c5.5-4.6,9.1-7.6,17.3-7.6
		c8.2,0,11.9,3,17.3,7.6c6.5,5.5,14.7,12.4,30.2,12.4c8.7,0,15.1-2.2,20.2-5.1v66.3H93.2V272.7z M354.8,392.9H62.2l-6.7-33.8h306.2
		L354.8,392.9z"/>
	<path class="st0" d="M208.5,97.9c20.3,0,36.9-16.6,36.9-36.9c0-17.2-22.4-45.2-29.2-53.3c-1.9-2.3-4.7-3.6-7.7-3.6
		s-5.8,1.3-7.7,3.6c-6.9,8.2-29.2,36.2-29.2,53.3C171.6,81.4,188.2,97.9,208.5,97.9z M208.5,30.3c9.1,12.3,16.9,25.5,16.9,30.7
		c0,9.3-7.6,16.9-16.9,16.9c-9.3,0-16.9-7.6-16.9-16.9C191.6,55.8,199.4,42.6,208.5,30.3z"/>
</g>
<image style="overflow:visible;" width="44" height="63" xlink:href="6C5DBF9A.jpg"  transform="matrix(1 0 0 1 -260.5 115)">
</image>
<rect x="-149" y="16" class="st1" width="97" height="70"/>
</svg>
