<?xml version="1.0" encoding="utf-8"?>
<!-- Generator: Adobe Illustrator 26.0.1, SVG Export Plug-In . SVG Version: 6.00 Build 0)  -->
<svg version="1.1" id="Flat" xmlns="http://www.w3.org/2000/svg" xmlns:xlink="http://www.w3.org/1999/xlink" x="0px" y="0px"
	 viewBox="0 0 256 256" style="enable-background:new 0 0 256 256;" xml:space="preserve">
<style type="text/css">
	.st0{fill:#499BF2;}
</style>
<path class="st0" d="M208,35h-20v-8c0-6.6-5.4-12-12-12s-12,5.4-12,12v8H92v-8c0-6.6-5.4-12-12-12s-12,5.4-12,12v8H48
	c-11,0-20,9-20,20v160c0,11,9,20,20,20h160c11,0,20-9,20-20V55C228,44,219,35,208,35z M204,59v24H52V59H204z M52,211V107h152v104H52
	z M172.7,126.8c4.5,4.8,4.3,12.4-0.5,17c0,0,0,0,0,0l-46.7,44c-4.6,4.4-11.9,4.4-16.5,0l-25.3-24c-4.8-4.6-5-12.1-0.5-17
	s12.1-5,17-0.5c0,0,0,0,0,0l17.1,16.2l38.4-36.2C160.6,121.7,168.2,121.9,172.7,126.8z"/>
</svg>
