<?xml version="1.0" encoding="utf-8"?>
<!-- Generator: Adobe Illustrator 26.0.1, SVG Export Plug-In . SVG Version: 6.00 Build 0)  -->
<svg version="1.1" id="Capa_1" xmlns="http://www.w3.org/2000/svg" xmlns:xlink="http://www.w3.org/1999/xlink" x="0px" y="0px"
	 viewBox="0 0 216.4 216.4" style="enable-background:new 0 0 216.4 216.4;" xml:space="preserve">
<style type="text/css">
	.st0{fill:#F5F9FC;}
</style>
<g>
	<path class="st0" d="M207.4,30.1h-25.4V13.4c0-5-4-9-9-9s-9,4-9,9v16.7H52.4V13.4c0-5-4-9-9-9s-9,4-9,9v16.7H9c-5,0-9,4-9,9v163.8
		c0,5,4,9,9,9h198.4c5,0,9-4,9-9V39.1C216.4,34.2,212.3,30.1,207.4,30.1z M198.4,48.1v20H18v-20H198.4z M18,193.9V86.1h180.4v107.8
		L18,193.9L18,193.9z"/>
</g>
</svg>
