<?xml version="1.0" encoding="utf-8"?>
<!-- Generator: Adobe Illustrator 26.0.1, SVG Export Plug-In . SVG Version: 6.00 Build 0)  -->
<svg version="1.1" id="Layer_1" xmlns="http://www.w3.org/2000/svg" xmlns:xlink="http://www.w3.org/1999/xlink" x="0px" y="0px"
	 viewBox="0 0 490.6 490.6" style="enable-background:new 0 0 490.6 490.6;" xml:space="preserve">
<style type="text/css">
	.st0{fill:#26155C;}
</style>
<g>
	<g>
		<path class="st0" d="M100.9,419.4l123.8-51c3.1-2.1,6.2-4.2,8.3-6.2l203.9-248.6c6.2-9.4,5.2-21.8-3.1-29.1L337,4.4
			c-8-5.9-20.3-6.8-28.1,3.1L104,256c-2.1,3.1-3.1,6.2-4.2,9.4l-26,132.1C72.5,420.1,90.6,424,100.9,419.4z M326.6,49l65.5,54.1
			L214.4,320.2l-64.9-53.7L326.6,49z M133.4,306.9l44.4,36.8l-57.2,23.6L133.4,306.9z"/>
		<path class="st0" d="M469.1,448.5H119.6c0,0-72.5,3.4-75.2-15.2c0-1-1.8-5.6,7.6-17c7.3-9.4,6.2-21.8-2.1-29.1
			c-9.4-7.3-21.8-6.2-29.1,2.1C1,413.2-4.2,434,5.2,452.8c25.5,47.5,111.3,36.3,115.4,37.3h348.5c11.4,0,20.8-9.4,20.8-20.8
			C490,457.8,480.6,448.5,469.1,448.5z"/>
	</g>
</g>
</svg>
