<?xml version="1.0" encoding="utf-8"?>
<!-- Generator: Adobe Illustrator 26.0.1, SVG Export Plug-In . SVG Version: 6.00 Build 0)  -->
<svg version="1.1" id="Layer_1" xmlns="http://www.w3.org/2000/svg" xmlns:xlink="http://www.w3.org/1999/xlink" x="0px" y="0px"
	 viewBox="0 0 24 24" style="enable-background:new 0 0 24 24;" xml:space="preserve">
<style type="text/css">
	.st0{fill-rule:evenodd;clip-rule:evenodd;fill:#444444;}
	.st1{fill:#444444;}
	.st2{fill-rule:evenodd;clip-rule:evenodd;fill:#ED5871;}
	.st3{fill:#ED5871;}
</style>
<path class="st0" d="M-37.2,7.5c0-2.3,1.9-4.2,4.2-4.2c2.3,0,4.2,1.9,4.2,4.2s-1.9,4.2-4.2,4.2C-35.3,11.8-37.2,9.8-37.2,7.5z
	 M-33,4.8c-1.5,0-2.8,1.2-2.8,2.8s1.2,2.8,2.8,2.8c1.5,0,2.8-1.2,2.8-2.8S-31.5,4.8-33,4.8z"/>
<path class="st0" d="M-40.8,17c0-2.1,1.7-3.8,3.8-3.8h0.3c0.2,0,0.4,0,0.5,0.1l0.9,0.3c1.5,0.5,3,0.5,4.5,0l0.9-0.3
	c0.2-0.1,0.4-0.1,0.5-0.1h0.3c2.1,0,3.8,1.7,3.8,3.8v1.2c0,0.8-0.5,1.4-1.3,1.5c-4.3,0.7-8.6,0.7-12.9,0c-0.7-0.1-1.3-0.8-1.3-1.5
	V17z M-37,14.8c-1.2,0-2.2,1-2.2,2.2v1.2c0,0,0,0,0,0c4.1,0.7,8.3,0.7,12.4,0c0,0,0,0,0,0V17c0-1.2-1-2.2-2.2-2.2h-0.3
	c0,0-0.1,0-0.1,0l-0.9,0.3c-1.8,0.6-3.7,0.6-5.4,0l-0.9-0.3c0,0-0.1,0-0.1,0H-37z"/>
<path class="st1" d="M-24.5,6.2c0.4,0,0.8,0.3,0.8,0.8v1.8h1.8c0.4,0,0.8,0.3,0.8,0.8s-0.3,0.8-0.8,0.8h-1.8V12
	c0,0.4-0.3,0.8-0.8,0.8s-0.8-0.3-0.8-0.8v-1.8H-27c-0.4,0-0.8-0.3-0.8-0.8s0.3-0.8,0.8-0.8h1.8V7C-25.2,6.6-24.9,6.2-24.5,6.2z"/>
<g>
	<path class="st2" d="M6.5,7.8c0-2.3,1.9-4.2,4.2-4.2c2.3,0,4.2,1.9,4.2,4.2S13.1,12,10.8,12C8.4,12,6.5,10.1,6.5,7.8z M10.8,5
		C9.2,5,8,6.2,8,7.8s1.2,2.8,2.8,2.8c1.5,0,2.8-1.2,2.8-2.8S12.3,5,10.8,5z"/>
	<path class="st2" d="M3,17.3c0-2.1,1.7-3.8,3.8-3.8h0.3c0.2,0,0.4,0,0.5,0.1l0.9,0.3c1.5,0.5,3,0.5,4.5,0l0.9-0.3
		c0.2-0.1,0.4-0.1,0.5-0.1h0.3c2.1,0,3.8,1.7,3.8,3.8v1.2c0,0.8-0.5,1.4-1.3,1.5c-4.3,0.7-8.6,0.7-12.9,0C3.5,19.8,3,19.2,3,18.4
		V17.3z M6.8,15c-1.2,0-2.2,1-2.2,2.2v1.2c0,0,0,0,0,0c4.1,0.7,8.3,0.7,12.4,0c0,0,0,0,0,0v-1.2c0-1.2-1-2.2-2.2-2.2h-0.3
		c0,0-0.1,0-0.1,0l-0.9,0.3c-1.8,0.6-3.7,0.6-5.4,0L7.2,15c0,0-0.1,0-0.1,0H6.8z"/>
	<path class="st3" d="M18.2,11.8h-1.8c-0.4,0-0.8-0.3-0.8-0.8s0.3-0.8,0.8-0.8h1.8h1.5h1.8c0.4,0,0.8,0.3,0.8,0.8s-0.3,0.8-0.8,0.8
		h-1.8H18.2z"/>
</g>
</svg>
