<?xml version="1.0" encoding="utf-8"?>
<!-- Generator: Adobe Illustrator 26.0.1, SVG Export Plug-In . SVG Version: 6.00 Build 0)  -->
<svg version="1.1" id="Layer_1" xmlns="http://www.w3.org/2000/svg" xmlns:xlink="http://www.w3.org/1999/xlink" x="0px" y="0px"
	 viewBox="0 0 36 36" style="enable-background:new 0 0 36 36;" xml:space="preserve">
<style type="text/css">
	.st0{fill:#F5F9FC;}
</style>
<g id="e1709d41-49e9-409f-9912-e2615f9236f6">
	<path class="st0" d="M18.4,16.3c-3.1,0-5.7-2.6-5.6-5.8s2.6-5.7,5.8-5.6c3.1,0,5.6,2.6,5.6,5.7C24.2,13.8,21.6,16.3,18.4,16.3z
		 M18.4,6.9c-2,0-3.7,1.7-3.6,3.8s1.7,3.7,3.8,3.6c2,0,3.6-1.7,3.6-3.7C22.2,8.6,20.5,6.9,18.4,6.9z"/>
	<path class="st0" d="M18.4,16.3c-3.1,0-5.7-2.6-5.6-5.8s2.6-5.7,5.8-5.6c3.1,0,5.6,2.6,5.6,5.7C24.2,13.8,21.6,16.3,18.4,16.3z
		 M18.4,6.9c-2,0-3.7,1.7-3.6,3.8s1.7,3.7,3.8,3.6c2,0,3.6-1.7,3.6-3.7C22.2,8.6,20.5,6.9,18.4,6.9z"/>
	<path class="st0" d="M21.9,17.6c-4.4-0.8-9-0.1-13,2C8.3,20,8,20.6,8,21.2v3.6c0,0.6,0.4,1,1,1s1-0.4,1-1v-3.4
		c3.7-1.9,7.9-2.5,12-1.7L21.9,17.6z"/>
	<path class="st0" d="M33,22h-6.7v-1.5c0-0.6-0.4-1-1-1s-1,0.4-1,1V22H17c-0.6,0-1,0.4-1,1v10c0,0.6,0.4,1,1,1h16c0.6,0,1-0.4,1-1
		V23C34,22.4,33.6,22,33,22z M32,32H18v-8h6.3v0.4c0,0.6,0.4,1,1,1s1-0.4,1-1V24H32V32z"/>
	<rect x="21.8" y="27.4" class="st0" width="6" height="1.4"/>
	<path class="st0" d="M10.8,12.2c-2.8,0-5.5,0.7-7.9,2C2.3,14.5,2,15.1,2,15.7v3.1c0,0.6,0.4,1,1,1s1-0.4,1-1v-2.9
		c2.4-1.2,5-1.7,7.6-1.7C11.2,13.6,11,12.9,10.8,12.2z"/>
	<path class="st0" d="M33.1,14.2c-2.2-1.2-4.6-1.8-7.1-2c-0.1,0.7-0.4,1.4-0.7,2c2.3,0.1,4.6,0.6,6.7,1.7v2.9c0,0.6,0.4,1,1,1
		s1-0.4,1-1v-3.1C34,15.1,33.7,14.5,33.1,14.2z"/>
	<path class="st0" d="M10.7,10.6c0-0.2,0-0.4,0-0.7C9,9.7,7.8,8.2,8,6.5c0.2-1.6,1.6-2.7,3.2-2.7c0.8,0,1.6,0.3,2.2,0.9
		c0.5-0.4,1.1-0.8,1.7-1.1C13.2,1.5,10,1.3,7.9,3.1c-1.1,1-1.7,2.3-1.8,3.8c0,2.6,2.1,4.8,4.7,5C10.7,11.5,10.7,11,10.7,10.6z"/>
	<path class="st0" d="M24.8,1.8c-1.4,0-2.7,0.6-3.7,1.6c0.7,0.2,1.3,0.6,1.9,1c1.4-1,3.4-0.6,4.4,0.8c0.4,0.5,0.5,1.1,0.6,1.7
		c0,1.2-0.7,2.3-1.8,2.8c0,0.3,0.1,0.6,0.1,0.9c0,0.4,0,0.8-0.1,1.2c2.2-0.6,3.8-2.6,3.8-4.9C29.9,4.1,27.6,1.8,24.8,1.8z"/>
</g>
</svg>
