<?xml version="1.0" encoding="utf-8"?>
<!-- Generator: Adobe Illustrator 26.0.1, SVG Export Plug-In . SVG Version: 6.00 Build 0)  -->
<svg version="1.1" id="Layer_1" xmlns="http://www.w3.org/2000/svg" xmlns:xlink="http://www.w3.org/1999/xlink" x="0px" y="0px"
	 viewBox="0 0 1024 1024" style="enable-background:new 0 0 1024 1024;" xml:space="preserve">
<style type="text/css">
	.st0{fill:none;stroke:#000000;stroke-width:72;stroke-miterlimit:10;}
	.st1{fill:none;stroke:#000000;stroke-width:68;stroke-miterlimit:10;}
</style>
<g>
	<path d="M-101.8,492.3c-35.2-74.1-77-134.5-125.5-181.2l-50.9,50.9c41.5,39.6,77.6,91.5,108.9,156.1
		c-83.2,172.2-201.3,254-362.7,254c-48.4,0-93.1-7.5-133.9-22.4l-55.1,55.1c56.7,26.2,119.7,39.2,189,39.2
		c192.2,0,335.6-100.1,430.2-300.3C-94.1,527.5-94.1,508.6-101.8,492.3z M-165.4,171.6l-42.6-42.7c-3.1-3.1-8.2-3.1-11.3,0
		c0,0,0,0,0,0l-109.4,109.3c-60.3-30.8-128.1-46.2-203.3-46.2c-192.2,0-335.6,100.1-430.2,300.3c-7.7,16.3-7.7,35.2,0,51.5
		c37.8,79.6,83.3,143.4,136.5,191.4l-105.8,105.8c-3.1,3.1-3.1,8.2,0,11.3l42.7,42.7c3.1,3.1,8.2,3.1,11.3,0l712.2-712.1
		C-162.2,179.8-162.2,174.8-165.4,171.6C-165.4,171.6-165.4,171.6-165.4,171.6z M-894.7,518.1c83.3-172.2,201.4-254,362.7-254
		c54.5,0,104.1,9.4,149.1,28.4l-70.3,70.3c-85.8-45.8-192.4-13.3-238.1,72.4c-27.6,51.8-27.6,113.9,0,165.7l-83.4,83.4
		C-820.9,643.6-860.7,588.3-894.7,518.1z M-648,518.1c0.1-61.9,50.3-112.1,112.2-112c11.5,0,23,1.8,34,5.3l-140.9,140.9
		C-646.2,541.2-648,529.7-648,518.1z"/>
	<path d="M-536,630.1c-3.5,0-6.9-0.2-10.2-0.5l-52.8,52.8c90.8,34.8,192.6-10.6,227.4-101.5c15.5-40.5,15.5-85.4,0-126l-52.8,52.8
		c0.3,3.4,0.5,6.8,0.5,10.2c0,61.8-50.1,112-111.9,112C-535.9,630.1-536,630.1-536,630.1L-536,630.1z"/>
</g>
<g>
	<path d="M988.9,486.2c-35.1-74.1-77-134.5-125.5-181.2l-50.9,50.9c41.5,39.7,77.6,91.5,108.9,156.1
		c-83.2,172.2-201.3,254-362.7,254c-48.4,0-93.1-7.5-133.9-22.4l-55.1,55.1c56.7,26.2,119.7,39.2,189,39.2
		c192.2,0,335.6-100.1,430.2-300.3C996.6,521.4,996.6,502.5,988.9,486.2z M637.5,356.7c-85.8-45.8-192.4-13.3-238.1,72.4
		c-27.6,51.8-27.6,113.9,0,165.7l48.6-48.6c-3.5-11.1-5.3-22.6-5.3-34.2c0.1-61.9,50.3-112.1,112.2-112c11.5,0,23,1.8,34,5.3
		 M762,232.2C701.7,201.4,634,186,558.7,186c-192.2,0-335.6,100.1-430.2,300.3c-7.7,16.3-7.7,35.2,0,51.5
		c37.8,79.6,83.3,143.4,136.5,191.4l51-51c-46.2-40.8-86-96-120-166.2c83.3-172.2,201.4-254,362.7-254c54.5,0,104.1,9.4,149.1,28.4"
		/>
	<path d="M554.7,624c-3.5,0-6.9-0.2-10.2-0.5l-52.8,52.8c90.8,34.8,192.6-10.6,227.4-101.5c15.5-40.5,15.5-85.4,0-126l-52.8,52.8
		c0.3,3.4,0.5,6.8,0.5,10.2c0,61.8-50.1,112-111.9,112C554.8,624,554.8,624,554.7,624L554.7,624z"/>
	<path class="st0" d="M159.9,512c0,30.4,116,289.7,396.4,289.7"/>
	<path class="st0" d="M958.3,512.1c0-30.4-118.6-289.8-394.5-289.8"/>
</g>
<circle class="st1" cx="555.2" cy="511.1" r="145.7"/>
</svg>
