<?xml version="1.0" encoding="utf-8"?>
<!-- Generator: Adobe Illustrator 26.0.1, SVG Export Plug-In . SVG Version: 6.00 Build 0)  -->
<svg version="1.1" id="Layer_1" xmlns="http://www.w3.org/2000/svg" xmlns:xlink="http://www.w3.org/1999/xlink" x="0px" y="0px"
	 viewBox="0 0 24 24" style="enable-background:new 0 0 24 24;" xml:space="preserve">
<style type="text/css">
	.st0{fill:#F5F9FC;}
</style>
<path class="st0" d="M12,20H5c-0.6,0-1-0.4-1-1V5c0-0.6,0.4-1,1-1h5v3c0,1.7,1.3,3,3,3h3v1c0,0.6,0.4,1,1,1s1-0.4,1-1V9
	c0,0,0,0,0-0.1c0-0.1,0-0.2-0.1-0.3V8.6c0-0.1-0.1-0.2-0.2-0.3l0,0l-6-6l0,0c-0.1-0.1-0.2-0.1-0.3-0.2c0,0-0.1,0-0.1,0
	C11.3,2.1,11.2,2,11.1,2H5C3.3,2,2,3.3,2,5v14c0,1.7,1.3,3,3,3h7c0.6,0,1-0.4,1-1S12.6,20,12,20z M12,5.4L14.6,8H13
	c-0.6,0-1-0.4-1-1V5.4z M7,8C6.4,8,6,8.4,6,9s0.4,1,1,1h1c0.6,0,1-0.4,1-1S8.6,8,8,8H7z M21.7,20.3l-1.2-1.2c0.8-1.3,0.5-3-0.5-4.1
	l0,0c-1.3-1.4-3.5-1.4-4.9-0.1c-0.7,0.7-1.1,1.6-1.1,2.6c0,1.9,1.5,3.5,3.4,3.5c0.6,0,1.2-0.1,1.7-0.4l1.2,1.2c0.4,0.4,1,0.4,1.4,0
	c0,0,0,0,0,0C22.1,21.3,22.1,20.7,21.7,20.3C21.7,20.3,21.7,20.3,21.7,20.3z M18.5,18.5c-0.6,0.6-1.5,0.6-2.1,0
	c-0.3-0.3-0.4-0.7-0.4-1.1c0-0.4,0.2-0.8,0.4-1.1c0.3-0.3,0.6-0.4,1-0.4c0.8,0,1.5,0.6,1.6,1.4c0,0,0,0.1,0,0.1
	C19,17.9,18.8,18.3,18.5,18.5z M13,12H7c-0.6,0-1,0.4-1,1s0.4,1,1,1h6c0.6,0,1-0.4,1-1S13.6,12,13,12z M11,18c0.6,0,1-0.4,1-1
	s-0.4-1-1-1H7c-0.6,0-1,0.4-1,1s0.4,1,1,1H11z"/>
</svg>
