<?xml version="1.0" encoding="utf-8"?>
<!-- Generator: Adobe Illustrator 26.0.1, SVG Export Plug-In . SVG Version: 6.00 Build 0)  -->
<svg version="1.1" id="Layer_1" xmlns="http://www.w3.org/2000/svg" xmlns:xlink="http://www.w3.org/1999/xlink" x="0px" y="0px"
	 viewBox="0 0 512 512" style="enable-background:new 0 0 512 512;" xml:space="preserve">
<style type="text/css">
	.st0{fill:#499BF2;}
	.st1{fill:none;stroke:#000000;stroke-width:31;stroke-linecap:round;stroke-linejoin:round;stroke-miterlimit:10;}
	.st2{fill:#FFFFFF;}
	.st3{fill:none;stroke:#FFFFFF;stroke-width:31;stroke-linecap:round;stroke-linejoin:round;stroke-miterlimit:10;}
</style>
<rect x="-532" y="532" class="st0" width="512" height="512"/>
<rect y="532" class="st0" width="512" height="512"/>
<rect x="532" y="532" class="st0" width="512" height="512"/>
<g>
	<g>
		<path d="M-276,136c-66.9,0-121.4,54.5-121.4,121.4s54.5,121.4,121.4,121.4s121.4-54.5,121.4-121.4C-154.6,190.4-209.1,136-276,136
			L-276,136z M-276,346.1c-49,0-88.8-39.9-88.8-88.8s39.9-88.8,88.8-88.8s88.8,39.9,88.8,88.8S-227,346.1-276,346.1z"/>
		<path d="M-276,111.5c9,0,16.3-7.3,16.3-16.3V76.9c0-9-7.3-16.3-16.3-16.3c-9,0-16.3,7.3-16.3,16.3v18.3
			C-292.3,104.2-285,111.5-276,111.5z"/>
		<path d="M-276,400.5c-9,0-16.3,7.3-16.3,16.3V435c0,9,7.3,16.3,16.3,16.3s16.3-7.3,16.3-16.3v-18.3
			C-259.7,407.8-267,400.5-276,400.5z"/>
		<path d="M-96.9,239.7h-18.3c-9,0-16.3,7.3-16.3,16.3c0,9,7.3,16.3,16.3,16.3h18.3c9,0,16.3-7.3,16.3-16.3
			C-80.6,247-87.9,239.7-96.9,239.7z"/>
		<path d="M-436.8,239.7h-18.3c-9,0-16.3,7.3-16.3,16.3c0,9,7.3,16.3,16.3,16.3h18.3c9,0,16.3-7.3,16.3-16.3
			C-420.5,247-427.8,239.7-436.8,239.7z"/>
		<path d="M-160.9,117.9l-13,12.9c-6.4,6.4-6.4,16.7,0,23c6.4,6.4,16.7,6.4,23,0l12.9-12.9c6.4-6.4,6.4-16.7,0-23
			C-144.3,111.5-154.6,111.5-160.9,117.9z"/>
		<path d="M-401.2,358.1l-12.9,12.9c-6.4,6.4-6.4,16.7,0,23c6.4,6.4,16.7,6.4,23,0l12.9-12.9c6.4-6.4,6.4-16.7,0-23
			C-384.5,351.8-394.8,351.8-401.2,358.1z"/>
		<path d="M-150.8,358.1c-6.4-6.4-16.7-6.4-23,0c-6.4,6.4-6.4,16.7,0,23l12.9,12.9c6.4,6.4,16.7,6.4,23,0c6.4-6.4,6.4-16.7,0-23
			L-150.8,358.1z"/>
		<path d="M-401.2,153.8c6.4,6.4,16.7,6.4,23,0c6.4-6.4,6.4-16.7,0-23l-12.9-12.9c-6.4-6.4-16.7-6.4-23,0s-6.4,16.7,0,23
			C-414.1,140.9-401.2,153.8-401.2,153.8z"/>
	</g>
</g>
<g>
	<line class="st1" x1="59.7" y1="271.1" x2="87.5" y2="271.1"/>
	<line class="st1" x1="117.2" y1="132.3" x2="136.9" y2="152"/>
	<line class="st1" x1="256" y1="74.8" x2="256" y2="102.6"/>
	<line class="st1" x1="394.8" y1="132.3" x2="375.1" y2="152"/>
	<line class="st1" x1="452.3" y1="271.1" x2="424.5" y2="271.1"/>
	<path class="st1" d="M351.4,316.4c6.5-13.7,10.3-29,10.3-45.3c0-58.4-47.3-105.7-105.7-105.7s-105.7,47.3-105.7,105.7
		c0,16.3,3.8,31.6,10.3,45.3H351.4z"/>
	<line class="st1" x1="59.7" y1="376.8" x2="452.3" y2="376.8"/>
	<line class="st1" x1="120.1" y1="437.2" x2="301.3" y2="437.2"/>
	<line class="st1" x1="391.9" y1="437.2" x2="361.7" y2="437.2"/>
</g>
<path d="M756.6,94.3c4.2,5.1,4.8,12.2,1.7,18c-12.1,22.2-18.4,47.2-18.4,72.5c0,84.2,68.7,152.4,153.3,152.4c11,0,21.8-1.2,32.1-3.4
	c6.5-1.4,13.2,1.2,17,6.6c4,5.7,3.8,13.3-0.6,18.7c-33.3,40.9-83.2,64.6-135.9,64.5c-96.6,0-174.8-77.8-174.8-173.6
	c0-72.1,44.3-134,107.3-160.2C744.7,87,752.2,88.8,756.6,94.3z M732.7,115.9c-49.4,26.5-80.2,78-80.3,134
	c0,84.2,68.7,152.4,153.3,152.4c40.9,0.1,80.2-16.2,109-45.3c-7.1,0.9-14.2,1.3-21.6,1.3c-96.6,0-174.7-77.8-174.7-173.6
	C718.4,160.3,723.5,137,732.7,115.9z"/>
<g>
	<g>
		<path class="st2" d="M-276,668c-66.9,0-121.4,54.5-121.4,121.4s54.5,121.4,121.4,121.4s121.4-54.5,121.4-121.4
			C-154.6,722.4-209.1,668-276,668L-276,668z M-276,878.1c-49,0-88.8-39.9-88.8-88.8s39.9-88.8,88.8-88.8s88.8,39.9,88.8,88.8
			S-227,878.1-276,878.1z"/>
		<path class="st2" d="M-276,643.6c9,0,16.3-7.3,16.3-16.3V609c0-9-7.3-16.3-16.3-16.3c-9,0-16.3,7.3-16.3,16.3v18.3
			C-292.3,636.3-285,643.6-276,643.6z"/>
		<path class="st2" d="M-276,932.5c-9,0-16.3,7.3-16.3,16.3V967c0,9,7.3,16.3,16.3,16.3s16.3-7.3,16.3-16.3v-18.3
			C-259.7,939.9-267,932.5-276,932.5z"/>
		<path class="st2" d="M-96.9,771.8h-18.3c-9,0-16.3,7.3-16.3,16.3c0,9,7.3,16.3,16.3,16.3h18.3c9,0,16.3-7.3,16.3-16.3
			S-87.9,771.8-96.9,771.8z"/>
		<path class="st2" d="M-436.8,771.8h-18.3c-9,0-16.3,7.3-16.3,16.3c0,9,7.3,16.3,16.3,16.3h18.3c9,0,16.3-7.3,16.3-16.3
			C-420.5,779-427.8,771.8-436.8,771.8z"/>
		<path class="st2" d="M-160.9,649.9l-13,12.9c-6.4,6.4-6.4,16.7,0,23c6.4,6.4,16.7,6.4,23,0l12.9-12.9c6.4-6.4,6.4-16.7,0-23
			C-144.3,643.6-154.6,643.6-160.9,649.9z"/>
		<path class="st2" d="M-401.2,890.2l-12.9,12.9c-6.4,6.4-6.4,16.7,0,23c6.4,6.4,16.7,6.4,23,0l12.9-12.9c6.4-6.4,6.4-16.7,0-23
			C-384.5,883.8-394.8,883.9-401.2,890.2z"/>
		<path class="st2" d="M-150.8,890.2c-6.4-6.4-16.7-6.4-23,0c-6.4,6.4-6.4,16.7,0,23l12.9,12.9c6.4,6.4,16.7,6.4,23,0
			c6.4-6.4,6.4-16.7,0-23L-150.8,890.2z"/>
		<path class="st2" d="M-401.2,685.9c6.4,6.4,16.7,6.4,23,0s6.4-16.7,0-23l-12.9-12.9c-6.4-6.4-16.7-6.4-23,0
			c-6.4,6.4-6.4,16.7,0,23C-414.1,673-401.2,685.9-401.2,685.9z"/>
	</g>
</g>
<g>
	<line class="st3" x1="59.7" y1="803.2" x2="87.5" y2="803.2"/>
	<line class="st3" x1="117.2" y1="664.3" x2="136.9" y2="684"/>
	<line class="st3" x1="256" y1="606.8" x2="256" y2="634.7"/>
	<line class="st3" x1="394.8" y1="664.3" x2="375.1" y2="684"/>
	<line class="st3" x1="452.3" y1="803.2" x2="424.5" y2="803.2"/>
	<path class="st3" d="M351.4,848.5c6.5-13.7,10.3-29,10.3-45.3c0-58.4-47.3-105.7-105.7-105.7s-105.7,47.3-105.7,105.7
		c0,16.3,3.8,31.6,10.3,45.3H351.4z"/>
	<line class="st3" x1="59.7" y1="908.8" x2="452.3" y2="908.8"/>
	<line class="st3" x1="120.1" y1="969.2" x2="301.3" y2="969.2"/>
	<line class="st3" x1="391.9" y1="969.2" x2="361.7" y2="969.2"/>
</g>
<path class="st2" d="M756.6,626.3c4.2,5.1,4.8,12.2,1.7,18c-12.1,22.2-18.4,47.2-18.4,72.5c0,84.2,68.7,152.4,153.3,152.4
	c11,0,21.8-1.2,32.1-3.4c6.5-1.4,13.2,1.2,17,6.6c4,5.7,3.8,13.3-0.6,18.7c-33.3,40.9-83.2,64.6-135.9,64.5
	c-96.6,0-174.8-77.8-174.8-173.6c0-72.1,44.3-134,107.3-160.2C744.7,619,752.2,620.9,756.6,626.3z M732.7,647.9
	c-49.4,26.5-80.2,78-80.3,134c0,84.2,68.7,152.4,153.3,152.4c40.9,0.1,80.2-16.2,109-45.3c-7.1,0.9-14.2,1.3-21.6,1.3
	c-96.6,0-174.7-77.8-174.7-173.6C718.4,692.3,723.5,669.1,732.7,647.9z"/>
</svg>
