<?xml version="1.0" encoding="utf-8"?>
<!-- Generator: Adobe Illustrator 26.0.1, SVG Export Plug-In . SVG Version: 6.00 Build 0)  -->
<svg version="1.1" id="Capa_1" xmlns="http://www.w3.org/2000/svg" xmlns:xlink="http://www.w3.org/1999/xlink" x="0px" y="0px"
	 viewBox="0 0 490 490" style="enable-background:new 0 0 490 490;" xml:space="preserve">
<style type="text/css">
	.st0{fill:#F5F9FC;}
</style>
<g>
	<g>
		<path class="st0" d="M469.2,448.4h-43.7V231h42.7c11.4,0,20.8-9.4,21.8-20.8c0-11.4-9.4-20.8-20.8-20.8H20.8
			C9.4,189.4,0,198.8,0,210.2C0,221.6,9.4,231,20.8,231h42.7v217.4H20.8C9.4,448.4,0,457.8,0,469.2C0,480.6,9.4,490,20.8,490h447.3
			c11.4,0,20.8-9.4,21.8-20.8C490,457.7,480.6,448.4,469.2,448.4z M105.1,231h278.8v217.4H105.1V231z"/>
		<path class="st0" d="M122.8,136.3h243.4c10.4,0,19.8-9.4,19.8-20.8s-9.4-20.8-20.8-20.8H122.8c-11.4,0-20.8,9.4-20.8,20.8
			S111.3,136.3,122.8,136.3z"/>
		<path class="st0" d="M170.6,41.6h147.7c11.4,0,21.8-9.4,21.8-20.8S330.8,0,319.4,0H170.6c-11.4,0-20.8,9.4-20.8,20.8
			S159.2,41.6,170.6,41.6z"/>
	</g>
</g>
</svg>
