<?xml version="1.0" encoding="utf-8"?>
<!-- Generator: Adobe Illustrator 26.0.1, SVG Export Plug-In . SVG Version: 6.00 Build 0)  -->
<svg version="1.1" id="Layer_1" xmlns="http://www.w3.org/2000/svg" xmlns:xlink="http://www.w3.org/1999/xlink" x="0px" y="0px"
	 viewBox="0 0 20 20" style="enable-background:new 0 0 20 20;" xml:space="preserve">
<style type="text/css">
	.st0{fill:#F5F9FC;}
</style>
<path class="st0" d="M11.7,8.5c-0.2,0-0.3,0.1-0.3,0.3V11c0,0.2,0.1,0.3,0.3,0.3h6.7c0.2,0,0.3-0.1,0.3-0.3V8.8
	c0-0.2-0.1-0.3-0.3-0.3H11.7z M15.8,1.5c0.9,0,1.6,0.2,2,0.6c0.4,0.4,0.6,0.9,0.7,1.7v2.1c0,0.4-0.3,0.7-0.7,0.7s-0.7-0.3-0.7-0.7
	l0-2.1c0-0.4-0.1-0.6-0.2-0.7c-0.1-0.1-0.5-0.2-1.1-0.3l-13.1,0C2.1,2.9,1.8,3,1.6,3.1C1.5,3.2,1.4,3.5,1.4,4l0,11.8
	c0,0.5,0.2,0.9,0.3,1c0.1,0.1,0.5,0.3,1,0.3l13.1,0c0.6,0,1-0.1,1.1-0.2c0.1-0.1,0.2-0.5,0.2-1.1v-2c0-0.4,0.3-0.7,0.7-0.7
	s0.7,0.3,0.7,0.7v2c0,0.9-0.2,1.6-0.6,2c-0.4,0.5-1.2,0.6-2.1,0.6l-13.2,0c-0.9-0.1-1.5-0.4-1.9-0.8c-0.3-0.4-0.5-1-0.6-1.8V4
	c0-0.9,0.2-1.5,0.7-1.9c0.4-0.4,1.1-0.6,1.9-0.6L15.8,1.5z M18.3,7.2c0.9,0,1.7,0.7,1.7,1.6V11c0,0.9-0.7,1.6-1.7,1.6h-6.7
	c-0.9,0-1.7-0.7-1.7-1.6V8.8c0-0.9,0.7-1.6,1.7-1.6H18.3z M13.3,9.1c-0.5,0-0.8,0.4-0.8,0.8c0,0.4,0.4,0.8,0.8,0.8s0.8-0.4,0.8-0.8
	C14.2,9.5,13.8,9.1,13.3,9.1z"/>
</svg>
