<?xml version="1.0" encoding="utf-8"?>
<!-- Generator: Adobe Illustrator 26.0.1, SVG Export Plug-In . SVG Version: 6.00 Build 0)  -->
<svg version="1.1" id="Layer_1" xmlns="http://www.w3.org/2000/svg" xmlns:xlink="http://www.w3.org/1999/xlink" x="0px" y="0px"
	 viewBox="0 0 24 24" style="enable-background:new 0 0 24 24;" xml:space="preserve">
<style type="text/css">
	.st0{fill-rule:evenodd;clip-rule:evenodd;fill:#499BF2;}
	.st1{fill:#499BF2;}
</style>
<path class="st0" d="M4.5,10.5c1.9,4.2,5.4,7.6,9.7,9.4l0.8,0.3c1.6,0.7,3.5,0.2,4.6-1.2l1.3-1.8c0.5-0.8,0.4-1.8-0.3-2.4l-2.2-1.8
	c-0.8-0.6-1.9-0.5-2.5,0.3L15.2,14c-2.2-1.1-4-2.9-5.1-5.1l0.7-0.5c0.8-0.6,0.9-1.7,0.3-2.5L9.3,3.7C8.7,3,7.7,2.8,6.9,3.4L5.1,4.7
	c-1.4,1-2,3-1.2,4.6L4.5,10.5L4.5,10.5z M14.8,18.5c-4-1.7-7.1-4.8-8.9-8.7l0,0L5.3,8.6C4.8,7.7,5.1,6.5,6,5.9l1.8-1.3
	c0.1-0.1,0.3-0.1,0.3,0l1.8,2.2C10,7,10,7.1,9.9,7.2L8.7,8.1C8.4,8.3,8.3,8.7,8.5,9c1.3,3,3.7,5.3,6.7,6.7c0.3,0.1,0.7,0,0.9-0.2
	l0.9-1.2c0.1-0.1,0.2-0.1,0.4,0l2.2,1.8c0.1,0.1,0.1,0.2,0,0.3l-1.3,1.8c-0.6,0.9-1.8,1.2-2.7,0.7L14.8,18.5L14.8,18.5z"/>
<path class="st1" d="M13.8,9c0,0.2,0.1,0.4,0.2,0.5c0.1,0.1,0.3,0.2,0.5,0.2h3.8c0.4,0,0.8-0.3,0.8-0.8c0-0.4-0.3-0.8-0.8-0.8h-2
	l3.2-3.2c0.3-0.3,0.3-0.8,0-1.1c-0.3-0.3-0.8-0.3-1.1,0l-3.2,3.2v-2c0-0.4-0.3-0.8-0.8-0.8s-0.8,0.3-0.8,0.8V9z"/>
</svg>
