<?xml version="1.0" encoding="utf-8"?>
<!-- Generator: Adobe Illustrator 26.0.1, SVG Export Plug-In . SVG Version: 6.00 Build 0)  -->
<svg version="1.1" id="Layer_1" xmlns="http://www.w3.org/2000/svg" xmlns:xlink="http://www.w3.org/1999/xlink" x="0px" y="0px"
	 viewBox="0 0 533.4 572.2" style="enable-background:new 0 0 533.4 572.2;" xml:space="preserve">
<style type="text/css">
	.st0{fill:#F5F9FC;}
</style>
<g>
	<g>
		<path class="st0" d="M505.2,64.5L446.9,6.2c-8.3-8.3-21.8-8.3-30.1,0c-8.3,8.3-8.3,21.8,0,30.1L431.5,51l-75,75l-46.6-46.6
			c-8.3-8.3-21.8-8.3-30.1,0s-8.3,21.8,0,30.1l9,8.9L65.1,342.1c-3.6,3.6-5.7,8.3-6.2,13.3l-6.2,74.5L6.8,475.7
			c-8.3,8.3-8.3,21.8,0,30.1c4.2,4.2,9.6,6.2,15,6.2s10.9-2.1,15-6.2l45.9-45.9l74.5-6.2c5-0.4,9.7-2.6,13.3-6.2l223.7-223.7
			l8.9,8.9c4.2,4.2,9.6,6.2,15,6.2s10.9-2.1,15-6.2c8.3-8.3,8.3-21.8,0-30.1l-46.6-46.6l75-75l13.5,13.5c4.2,4.2,9.6,6.2,15,6.2
			s10.9-2.1,15-6.2C513.5,86.3,513.5,72.8,505.2,64.5z M146,411.9L96.5,416l4.1-49.4l158.8-158.8l45.3,45.3L146,411.9z M334.8,223.1
			l-45.3-45.3l29.3-29.3l45.3,45.3L334.8,223.1z"/>
	</g>
</g>
<g>
	<path class="st0" d="M394.7,499.7c-11,0-20-9-20-20V344.1c0-11,9-20,20-20s20,9,20,20v135.6C414.7,490.7,405.8,499.7,394.7,499.7z"
		/>
</g>
<g>
	<path class="st0" d="M462.5,431.9H327c-11,0-20-9-20-20s9-20,20-20h135.6c11,0,20,9,20,20S473.6,431.9,462.5,431.9z"/>
</g>
</svg>
