<?xml version="1.0" encoding="utf-8"?>
<!-- Generator: Adobe Illustrator 26.0.1, SVG Export Plug-In . SVG Version: 6.00 Build 0)  -->
<svg version="1.1" id="Capa_1" xmlns="http://www.w3.org/2000/svg" xmlns:xlink="http://www.w3.org/1999/xlink" x="0px" y="0px"
	 viewBox="0 0 612 612" style="enable-background:new 0 0 612 612;" xml:space="preserve">
<style type="text/css">
	.st0{fill:#F5F9FC;}
</style>
<g>
	<path class="st0" d="M605.9,118.3L504.7,17.1c-8.2-8.2-21.5-8.2-29.6,0s-8.2,21.5,0,29.6l1.7,1.7l-69.2,69.2l-48.7-48.7
		c-8.2-8.2-21.5-8.2-29.6,0s-8.2,21.5,0,29.6l20.3,20.3L71.7,396.7c-3.9,3.9-6.1,9.3-6.1,14.8c0,5.6,2.2,10.9,6.1,14.8L86,440.7
		l-10.6,10.6c-8.2,8.2-8.2,21.5,0,29.6l14.8,14.8L3.1,582.9c-3,3-3.9,7.5-2.3,11.4c1.6,3.9,5.4,6.5,9.6,6.5l44,0.2c0,0,0,0,0.1,0
		c2.8,0,5.4-1.1,7.4-3.1l65.3-65.3l14.8,14.8c3.9,3.9,9.3,6.1,14.8,6.1c5.6,0,10.9-2.2,14.8-6.1l10.6-10.6l14.3,14.3
		c4.1,4.1,9.5,6.1,14.8,6.1s10.7-2,14.8-6.1L504,273.4l20.4,20.4c4.1,4.1,9.5,6.1,14.8,6.1c5.4,0,10.7-2,14.8-6.1
		c8.2-8.2,8.2-21.5,0-29.6l-48.7-48.7l69.2-69.2l1.7,1.7c4.1,4.1,9.5,6.1,14.8,6.1c5.4,0,10.7-2,14.8-6.1
		C614,139.7,614,126.5,605.9,118.3z M211.4,506.7l-95.2-95.2l47.2-47.2l32.8,32.8c4.1,4.1,9.5,6.1,14.8,6.1s10.7-2,14.8-6.1
		c8.2-8.2,8.2-21.5,0-29.6l-32.8-32.8l44.5-44.5l32.8,32.8c4.1,4.1,9.5,6.1,14.8,6.1c5.4,0,10.7-2,14.8-6.1c8.2-8.2,8.2-21.5,0-29.6
		l-32.8-32.8l44.5-44.5l32.8,32.8c4.1,4.1,9.5,6.1,14.8,6.1s10.7-2,14.8-6.1c8.2-8.2,8.2-21.5,0-29.6l-32.8-32.8l37.9-37.9
		l60.6,60.6l21.1,21.1c0,0,0,0,0,0l13.5,13.5L211.4,506.7z"/>
</g>
</svg>
